<?xml version="1.0" encoding="UTF-8" standalone="no"?>
<!DOCTYPE svg PUBLIC "-//W3C//DTD SVG 1.1//EN" "http://www.w3.org/Graphics/SVG/1.1/DTD/svg11.dtd">
<svg width="100%" height="100%" viewBox="0 0 24 17" version="1.1" xmlns="http://www.w3.org/2000/svg" xmlns:xlink="http://www.w3.org/1999/xlink" xml:space="preserve" xmlns:serif="http://www.serif.com/" style="fill-rule:evenodd;clip-rule:evenodd;stroke-linejoin:round;stroke-miterlimit:2;">
    <g transform="matrix(1,0,0,1,-673,-2088)">
        <g transform="matrix(1,0,0,1,0,1152)">
            <g id="Menu-Icon" serif:id="Menu Icon" transform="matrix(1,0,0,1,490,-1783)">
                <path d="M205.5,2729L184.5,2729C183.672,2729 183,2728.33 183,2727.5C183,2726.67 183.672,2726 184.5,2726L205.5,2726C206.329,2726 207,2726.67 207,2727.5C207,2728.33 206.329,2729 205.5,2729ZM205.5,2722L184.5,2722C183.672,2722 183,2721.33 183,2720.5C183,2719.67 183.672,2719 184.5,2719L205.5,2719C206.329,2719 207,2719.67 207,2720.5C207,2721.33 206.329,2722 205.5,2722ZM184.5,2733L205.5,2733C206.329,2733 207,2733.67 207,2734.5C207,2735.33 206.329,2736 205.5,2736L184.5,2736C183.672,2736 183,2735.33 183,2734.5C183,2733.67 183.672,2733 184.5,2733Z" style="fill:rgb(131,147,167);"/>
            </g>
        </g>
    </g>
</svg>
