<?xml version="1.0" encoding="UTF-8" standalone="no"?>
<!DOCTYPE svg PUBLIC "-//W3C//DTD SVG 1.1//EN" "http://www.w3.org/Graphics/SVG/1.1/DTD/svg11.dtd">
<svg width="100%" height="100%" viewBox="0 0 30 24" version="1.1" xmlns="http://www.w3.org/2000/svg" xmlns:xlink="http://www.w3.org/1999/xlink" xml:space="preserve" xmlns:serif="http://www.serif.com/" style="fill-rule:evenodd;clip-rule:evenodd;stroke-linejoin:round;stroke-miterlimit:2;">
    <g transform="matrix(1,0,0,1,-601.966,-2055)">
        <g transform="matrix(1,0,0,1,0,1152)">
            <g transform="matrix(1,0,0,1,0,-1181)">
                <path d="M616.483,2084L616.5,2084L629.5,2084C630.328,2084 631,2084.67 631,2085.5L631,2087.5C631,2088.33 630.328,2089 629.5,2089C628.672,2089 628,2088.33 628,2087.5L628,2087L618,2087L618,2105L628,2105L628,2104.5C628,2103.67 628.672,2103 629.5,2103C630.328,2103 631,2103.67 631,2104.5L631,2106.5C631,2107.33 630.328,2108 629.5,2108L616.5,2108L616.483,2108L616.466,2108L603.466,2108C602.637,2108 601.966,2107.33 601.966,2106.5L601.966,2085.5C601.966,2084.67 602.637,2084 603.466,2084L616.466,2084L616.483,2084ZM615,2087.82L615,2104.18C614.978,2104.28 614.966,2104.39 614.966,2104.5L614.966,2105L604.966,2105L604.966,2087L614.966,2087L614.966,2087.5C614.966,2087.61 614.978,2087.72 615,2087.82Z" style="fill:rgb(131,147,167);"/>
            </g>
        </g>
        <g transform="matrix(1,0,0,1,0,1152)">
            <g transform="matrix(1,-1.22465e-16,-1.22465e-16,-1,-219,4632.99)">
                <path d="M850,3717.99L850,3718C850.005,3718.26 849.908,3718.53 849.705,3718.73L844.737,3723.7C844.342,3724.09 843.701,3724.09 843.305,3723.7C842.91,3723.3 842.91,3722.66 843.305,3722.26L846.579,3718.99L840,3718.99C839.448,3718.99 839,3718.55 839,3718C839,3717.44 839.448,3717 840,3717L846.579,3717L843.305,3713.72C842.91,3713.33 842.91,3712.69 843.305,3712.3C843.701,3711.9 844.342,3711.9 844.737,3712.3L849.705,3717.26C849.908,3717.46 850.005,3717.73 850,3717.99Z" style="fill:rgb(131,147,167);"/>
            </g>
        </g>
    </g>
</svg>
