<?xml version="1.0" encoding="UTF-8" standalone="no"?>
<!DOCTYPE svg PUBLIC "-//W3C//DTD SVG 1.1//EN" "http://www.w3.org/Graphics/SVG/1.1/DTD/svg11.dtd">
<svg width="100%" height="100%" viewBox="0 0 211 45" version="1.1" xmlns="http://www.w3.org/2000/svg" xmlns:xlink="http://www.w3.org/1999/xlink" xml:space="preserve" xmlns:serif="http://www.serif.com/" style="fill-rule:evenodd;clip-rule:evenodd;stroke-linejoin:round;stroke-miterlimit:2;">
    <g transform="matrix(1,0,0,1,-12,-1163)">
        <path d="M57,1168.73C57,1165.56 54.437,1163 51.275,1163L17.725,1163C14.563,1163 12,1165.56 12,1168.73L12,1202.28C12,1205.44 14.563,1208 17.725,1208L51.275,1208C54.437,1208 57,1205.44 57,1202.28L57,1168.73ZM40.864,1188.23C40.864,1188.23 46.924,1194.29 49.519,1196.89C49.826,1197.19 49.999,1197.61 49.999,1198.04C49.999,1198.48 49.826,1198.89 49.519,1199.2C48.888,1199.83 48.11,1200.61 47.487,1201.23C47.125,1201.59 46.614,1201.77 46.107,1201.69C45.599,1201.62 45.154,1201.32 44.904,1200.87C42.183,1198.13 36.575,1192.52 36.575,1192.52L40.864,1188.23ZM84.551,1176.01C85.8,1177.15 86.806,1178.46 87.57,1179.95C88.334,1181.45 88.716,1182.86 88.716,1184.18C88.716,1185.83 88.175,1187.49 87.094,1189.17C86.013,1190.85 84.627,1192.22 82.936,1193.28C83.013,1193.38 83.811,1194.34 85.329,1196.13C86.443,1197.46 87.001,1198.27 87.001,1198.58C87.001,1198.88 86.775,1199.2 86.323,1199.53C85.872,1199.87 85.55,1200.04 85.358,1200.04C85.021,1200.04 84.704,1199.87 84.406,1199.55C83.907,1198.57 83.167,1197.48 82.187,1196.29C81.207,1195.1 80.693,1194.5 80.645,1194.5C80.549,1194.5 80.347,1194.55 80.04,1194.63C78.397,1195.09 76.792,1195.32 75.226,1195.32C73.276,1195.32 71.594,1194.78 70.182,1193.7C68.77,1192.61 68.064,1191.13 68.064,1189.27C68.064,1187.08 68.851,1184.72 70.427,1182.18C72.003,1179.64 73.939,1177.54 76.235,1175.87C78.531,1174.2 80.587,1173.36 82.403,1173.36C82.903,1173.36 83.402,1173.64 83.902,1174.21C84.402,1174.78 84.618,1175.38 84.551,1176.01ZM41.713,1199.95L22.636,1199.95C21.207,1199.95 20.049,1198.79 20.049,1197.36L20.049,1173.64C20.049,1172.21 21.207,1171.05 22.636,1171.05L46.364,1171.05C47.793,1171.05 48.951,1172.21 48.951,1173.64L48.951,1194.03L43.777,1188.85L43.777,1176.22L25.223,1176.22C25.223,1176.22 25.223,1194.78 25.223,1194.78L36.54,1194.78L41.713,1199.95ZM166.502,1183.33C166.502,1183.49 166.598,1183.59 166.79,1183.64C167.828,1183.93 168.745,1184.51 169.543,1185.37C170.34,1186.23 170.739,1187.25 170.739,1188.43C170.739,1190.25 169.576,1192.12 167.251,1194.04C164.926,1195.96 162.481,1196.92 159.916,1196.92C159.195,1196.92 158.631,1196.83 158.222,1196.64C157.814,1196.45 157.61,1196.24 157.61,1195.99C157.61,1194.78 158.465,1194.17 160.175,1194.17C160.415,1194.17 160.788,1194.18 161.292,1194.2C161.796,1194.22 162.378,1194.1 163.036,1193.83C163.694,1193.57 164.335,1193.23 164.96,1192.81C165.584,1192.39 166.12,1191.96 166.567,1191.51C167.014,1191.07 167.374,1190.59 167.648,1190.09C167.921,1189.59 168.058,1189.09 168.058,1188.58C168.058,1187.75 167.7,1187.02 166.985,1186.37C166.269,1185.73 165.315,1185.41 164.124,1185.41C163.932,1185.41 163.475,1185.56 162.755,1185.87C162.034,1186.19 161.563,1186.35 161.343,1186.35C160.593,1186.35 160.125,1186.25 159.937,1186.06C159.75,1185.87 159.656,1185.52 159.656,1185.03C159.656,1184.74 160.468,1184.26 162.092,1183.59C163.447,1183.06 164.76,1182.18 166.034,1180.96C167.307,1179.74 167.943,1178.7 167.943,1177.86C167.943,1177.27 167.703,1176.81 167.223,1176.46C166.742,1176.11 166.07,1175.94 165.205,1175.94C163.773,1175.94 162.351,1176.12 160.939,1176.47C159.527,1176.82 158.751,1177.15 158.611,1177.45C158.472,1177.76 158.081,1180.09 157.437,1184.44C156.793,1188.78 156.471,1191.3 156.471,1191.98C156.471,1192.65 156.486,1193.28 156.515,1193.86C156.543,1194.44 156.44,1194.94 156.205,1195.36C155.969,1195.78 155.568,1195.99 155.001,1195.99C154.483,1195.99 154.081,1195.78 153.798,1195.38C153.515,1194.97 153.373,1194.45 153.373,1193.83C153.373,1193.66 153.416,1193.41 153.503,1193.08C154.002,1191.01 154.473,1188.37 154.915,1185.15C155.357,1181.93 155.578,1180.07 155.578,1179.57C155.578,1179.17 155.523,1178.87 155.412,1178.68C155.302,1178.49 155.049,1178.39 154.655,1178.39C154.502,1178.39 154.35,1178.39 154.201,1178.4C154.053,1178.41 153.904,1178.32 153.755,1178.13C153.606,1177.94 153.531,1177.71 153.531,1177.44C153.531,1176.59 154.891,1175.76 157.61,1174.95C160.329,1174.13 163.091,1173.72 165.897,1173.72C167.338,1173.72 168.517,1174.11 169.435,1174.88C170.352,1175.65 170.811,1176.56 170.811,1177.6C170.811,1178.37 170.42,1179.27 169.636,1180.31C168.853,1181.36 167.809,1182.36 166.502,1183.33ZM136.649,1188.39C136.774,1188.23 137.634,1187.45 139.229,1186.07C140.737,1184.76 141.789,1183.8 142.385,1183.2C144.604,1180.98 146.199,1179.88 147.17,1179.88C147.919,1179.88 148.294,1180.24 148.294,1180.96C148.294,1181.77 147.924,1182.37 147.184,1182.76C146.223,1183.25 144.941,1184.06 143.336,1185.2C141.732,1186.34 140.929,1187.14 140.929,1187.61C140.929,1187.81 141.496,1188.52 142.63,1189.77C143.764,1191.01 144.744,1191.93 145.57,1192.52C146.396,1193.11 147.198,1193.41 147.977,1193.41L148.452,1193.39C148.789,1193.37 148.957,1193.52 148.957,1193.84C148.957,1194.26 148.693,1194.69 148.164,1195.13C147.636,1195.57 146.939,1195.79 146.074,1195.79C145.517,1195.79 144.953,1195.59 144.381,1195.2C143.809,1194.81 142.793,1193.76 141.333,1192.05C140.17,1190.64 139.445,1189.8 139.157,1189.52C138.869,1189.25 138.628,1189.11 138.436,1189.11C138.33,1189.11 137.994,1189.36 137.427,1189.86C136.86,1190.36 136.551,1190.74 136.498,1191C136.445,1191.26 136.419,1192.25 136.419,1193.97L136.419,1194.65C136.419,1195 136.25,1195.32 135.914,1195.6C135.578,1195.88 135.213,1196.02 134.819,1196.02C134.415,1196.02 134.098,1195.9 133.868,1195.66C133.637,1195.43 133.522,1195.18 133.522,1194.93C133.522,1194.59 133.651,1193.77 133.911,1192.49C134.276,1190.63 134.612,1188.15 134.92,1185.03C135.631,1177.68 136.178,1173.53 136.563,1172.56C136.947,1171.6 137.495,1171.11 138.206,1171.11C138.455,1171.11 138.664,1171.25 138.832,1171.52C139.001,1171.79 139.085,1172.13 139.085,1172.55C139.085,1173.32 138.753,1175.36 138.09,1178.68C137.427,1182 136.947,1185.24 136.649,1188.39ZM210.544,1188.39C210.669,1188.23 211.529,1187.45 213.124,1186.07C214.632,1184.76 215.684,1183.8 216.28,1183.2C218.5,1180.98 220.094,1179.88 221.065,1179.88C221.814,1179.88 222.189,1180.24 222.189,1180.96C222.189,1181.77 221.819,1182.37 221.079,1182.76C220.118,1183.25 218.836,1184.06 217.231,1185.2C215.627,1186.34 214.825,1187.14 214.825,1187.61C214.825,1187.81 215.391,1188.52 216.525,1189.77C217.659,1191.01 218.639,1191.93 219.465,1192.52C220.291,1193.11 221.094,1193.41 221.872,1193.41L222.347,1193.39C222.684,1193.37 222.852,1193.52 222.852,1193.84C222.852,1194.26 222.588,1194.69 222.059,1195.13C221.531,1195.57 220.834,1195.79 219.97,1195.79C219.412,1195.79 218.848,1195.59 218.276,1195.2C217.705,1194.81 216.688,1193.76 215.228,1192.05C214.066,1190.64 213.34,1189.8 213.052,1189.52C212.764,1189.25 212.523,1189.11 212.331,1189.11C212.226,1189.11 211.889,1189.36 211.322,1189.86C210.756,1190.36 210.446,1190.74 210.393,1191C210.34,1191.26 210.314,1192.25 210.314,1193.97L210.314,1194.65C210.314,1195 210.146,1195.32 209.809,1195.6C209.473,1195.88 209.108,1196.02 208.714,1196.02C208.31,1196.02 207.993,1195.9 207.763,1195.66C207.532,1195.43 207.417,1195.18 207.417,1194.93C207.417,1194.59 207.547,1193.77 207.806,1192.49C208.171,1190.63 208.507,1188.15 208.815,1185.03C209.526,1177.68 210.073,1173.53 210.458,1172.56C210.842,1171.6 211.39,1171.11 212.101,1171.11C212.351,1171.11 212.56,1171.25 212.728,1171.52C212.896,1171.79 212.98,1172.13 212.98,1172.55C212.98,1173.32 212.648,1175.36 211.985,1178.68C211.322,1182 210.842,1185.24 210.544,1188.39ZM122.828,1195.94C121.387,1195.94 120.28,1195.53 119.506,1194.7C118.733,1193.88 118.346,1192.72 118.346,1191.23C118.346,1188.72 119.341,1186.08 121.329,1183.3C123.318,1180.52 125.168,1179.12 126.878,1179.12C127.656,1179.12 128.326,1179.55 128.888,1180.39C129.45,1181.23 129.731,1182.12 129.731,1183.06C129.731,1183.63 129.609,1184.11 129.364,1184.52C129.119,1184.93 128.872,1185.13 128.622,1185.13C128.064,1185.13 127.671,1184.57 127.44,1183.45C127.181,1182.24 126.806,1181.63 126.316,1181.63C125.317,1181.63 124.135,1182.82 122.771,1185.19C121.406,1187.57 120.724,1189.57 120.724,1191.2C120.724,1192.84 121.651,1193.65 123.506,1193.65C124.918,1193.65 126.58,1192.99 128.492,1191.66C129.165,1191.19 129.659,1190.96 129.976,1190.96C130.303,1190.96 130.466,1191.14 130.466,1191.52C130.466,1192.25 129.607,1193.17 127.887,1194.28C126.167,1195.39 124.481,1195.94 122.828,1195.94ZM113.115,1191.92C113.115,1192.65 113.216,1193.48 113.417,1194.39C113.456,1194.56 113.475,1194.7 113.475,1194.82C113.475,1194.99 113.316,1195.22 112.999,1195.49C112.682,1195.76 112.346,1195.9 111.991,1195.9C111.059,1195.9 110.593,1195.05 110.593,1193.34C110.593,1191.57 110.958,1188.77 111.688,1184.95C111.938,1183.61 112.063,1182.79 112.063,1182.48C112.063,1181.88 112.173,1181.36 112.394,1180.93C112.615,1180.51 112.927,1180.29 113.331,1180.29C113.821,1180.29 114.208,1180.41 114.491,1180.65C114.774,1180.88 114.916,1181.14 114.916,1181.43C114.916,1181.72 114.849,1182.1 114.714,1182.57C113.994,1185.11 113.547,1186.92 113.374,1188.02C113.201,1189.11 113.115,1190.41 113.115,1191.92ZM178.579,1195.84C177.263,1195.84 176.177,1195.34 175.322,1194.34C174.467,1193.35 174.039,1192.11 174.039,1190.64C174.039,1188.16 174.873,1185.72 176.54,1183.31C178.207,1180.9 180.203,1179.7 182.528,1179.7C184.065,1179.7 185.312,1180.29 186.268,1181.47C187.224,1182.66 187.702,1184.06 187.702,1185.7C187.702,1188.19 186.714,1190.51 184.74,1192.64C182.766,1194.78 180.712,1195.84 178.579,1195.84ZM195.268,1195.84C193.952,1195.84 192.866,1195.34 192.011,1194.34C191.156,1193.35 190.728,1192.11 190.728,1190.64C190.728,1188.16 191.562,1185.72 193.229,1183.31C194.895,1180.9 196.892,1179.7 199.217,1179.7C200.754,1179.7 202,1180.29 202.956,1181.47C203.912,1182.66 204.39,1184.06 204.39,1185.7C204.39,1188.19 203.403,1190.51 201.429,1192.64C199.454,1194.78 197.401,1195.84 195.268,1195.84ZM102.536,1188.85C101.307,1190.92 100.048,1192.52 98.761,1193.65C97.473,1194.79 96.277,1195.35 95.172,1195.35C94.538,1195.35 93.892,1194.98 93.234,1194.24C92.576,1193.5 92.246,1192.37 92.246,1190.83C92.246,1189.57 92.549,1187.71 93.154,1185.27C93.664,1183.22 93.918,1181.78 93.918,1180.96C94.197,1180.38 94.634,1180.09 95.23,1180.09C95.633,1180.09 95.955,1180.23 96.195,1180.52C96.435,1180.8 96.556,1181.1 96.556,1181.4C96.556,1182.08 96.32,1183.03 95.849,1184.27C94.956,1186.68 94.509,1188.75 94.509,1190.48C94.509,1192.06 94.874,1192.85 95.604,1192.85C96.536,1192.85 97.723,1192.05 99.164,1190.47C100.605,1188.88 101.84,1186.67 102.868,1183.84C103.271,1182.7 103.601,1181.97 103.855,1181.63C104.11,1181.29 104.453,1181.11 104.886,1181.11C105.539,1181.11 105.866,1181.55 105.866,1182.41C105.866,1182.52 105.774,1182.87 105.592,1183.46C105.015,1185.57 104.727,1187.56 104.727,1189.43C104.727,1191.68 105.097,1193.13 105.837,1193.8C106.221,1194.15 106.413,1194.44 106.413,1194.66C106.413,1194.93 106.219,1195.17 105.83,1195.4C105.44,1195.62 105.087,1195.73 104.77,1195.73C104.098,1195.73 103.555,1195.23 103.142,1194.23C102.729,1193.23 102.522,1191.76 102.522,1189.8L102.522,1189.33C102.522,1189.17 102.527,1189.02 102.536,1188.85ZM193.265,1190.27C193.265,1191.24 193.469,1192.03 193.877,1192.64C194.285,1193.26 194.826,1193.57 195.498,1193.57C196.93,1193.57 198.366,1192.78 199.807,1191.21C201.249,1189.64 201.969,1187.89 201.969,1185.97C201.969,1184.79 201.693,1183.83 201.141,1183.1C200.588,1182.36 199.846,1181.99 198.914,1181.99C197.367,1181.99 196.039,1182.94 194.929,1184.84C193.819,1186.74 193.265,1188.55 193.265,1190.27ZM176.576,1190.27C176.576,1191.24 176.78,1192.03 177.188,1192.64C177.597,1193.26 178.137,1193.57 178.81,1193.57C180.241,1193.57 181.677,1192.78 183.119,1191.21C184.56,1189.64 185.28,1187.89 185.28,1185.97C185.28,1184.79 185.004,1183.83 184.452,1183.1C183.899,1182.36 183.157,1181.99 182.225,1181.99C180.678,1181.99 179.35,1182.94 178.24,1184.84C177.131,1186.74 176.576,1188.55 176.576,1190.27ZM78.93,1192.64C78.882,1192.36 78.526,1191.85 77.864,1191.13C77.239,1190.46 76.927,1190.06 76.927,1189.95C76.927,1189.63 77.133,1189.33 77.546,1189.03C77.96,1188.74 78.224,1188.59 78.339,1188.59C78.454,1188.59 78.584,1188.58 78.728,1188.54C79.305,1188.4 79.655,1188.61 79.78,1189.16C79.905,1189.7 80.181,1190.21 80.609,1190.68C81.037,1191.14 81.375,1191.38 81.625,1191.38C82.519,1191.38 83.544,1190.6 84.702,1189.04C85.86,1187.48 86.439,1185.99 86.439,1184.54C86.439,1182.5 85.735,1180.59 84.327,1178.82C82.92,1177.04 81.836,1176.16 81.077,1176.16C79.723,1176.16 78.214,1176.86 76.552,1178.26C74.89,1179.66 73.497,1181.39 72.373,1183.44C71.249,1185.49 70.686,1187.36 70.686,1189.04C70.686,1190.34 71.107,1191.35 71.947,1192.07C72.788,1192.8 73.838,1193.16 75.096,1193.16C76.49,1193.16 77.767,1192.99 78.93,1192.64ZM33.918,1185.58L39.371,1187.43C39.371,1187.43 35.776,1191.03 35.776,1191.03L33.918,1185.58ZM115.003,1175.83C114.801,1175.83 114.647,1175.61 114.541,1175.18C114.503,1175.04 114.45,1174.89 114.383,1174.73C114.124,1174.11 113.994,1173.56 113.994,1173.1C113.994,1172.72 114.222,1172.33 114.678,1171.93C115.135,1171.53 115.642,1171.33 116.199,1171.33C116.477,1171.33 116.79,1171.44 117.136,1171.65C117.481,1171.87 117.654,1172.08 117.654,1172.28C117.654,1172.6 117.537,1173.13 117.301,1173.89C117.066,1174.65 116.691,1175.16 116.177,1175.43C115.663,1175.69 115.272,1175.83 115.003,1175.83Z" style="fill:#000;fill-rule:nonzero;"/>
    </g>
</svg>
